@startuml
skinparam linetype ortho
hide circle
class SensorType{
String type
}
class Sensor{
String name
LocalDateTime startingDate
}
class Measurement{
double value
LocalDateTime dateTime
}
class Location{
double latitude
double longitude
double altitude
}
class GeoAreaType{
String type
}
class GeographicalArea{
String name
}
class AreaShape{
double length
double width
double height
}
class Address{
String zipCode
}
class House
class Room{
String name
int houseFloor
}
class Dimension{
double length
double width
double height
}
class HouseGrid{
String name
}
class PowerSource{
String name
}
class PowerSourceType{
String type
}
class Device{
String name
}
ENUM DeviceType{

}

Sensor "1" -- "1" SensorType
Sensor "1" -- "*" Measurement
Sensor "1" -- "1" Location

Room  -- Dimension
Room -- Sensor
Room -- Device

PowerSource -- PowerSourceType

House -- Room
House -- HouseGrid
House -- Address
House -- GeographicalArea

GeographicalArea "1" -- "1" GeoAreaType
GeographicalArea "1" -- "1" GeographicalArea
GeographicalArea -- Location
GeographicalArea -- AreaShape
GeographicalArea -- Sensor

Device -- Location
Device -- DeviceType

HouseGrid -- PowerSource
HouseGrid -- Room




@enduml